# Made in Blockbench 5.0.7
mtllib wbgun01-2forModel.mtl

o mesh
v 0.03125 0.140625 0.015625
v 0.03125 0.140625 -0.015625
v 0.03125 -0.140625 0.015625
v 0.03125 -0.140625 -0.015625
v -0.03125 0.140625 0.015625
v -0.03125 0.140625 -0.015625
v -0.03125 -0.140625 0.015625
v -0.03125 -0.140625 -0.015625
vt 0.18359375 0
vt 0.287109375 0
vt 0.287109375 0.5517578125
vt 0.18359375 0.5517578125
vt 0.5869140625 0
vt 0.5869140625 0.56640625
vt 0.48046875 0.56640625
vt 0.48046875 0
vt 0.9931640625 0.9375
vt 0.80859375 0.9375
vt 0.80859375 0.2587890625
vt 0.9931640625 0.2587890625
vt 0.8017578125 0.255859375
vt 0.8017578125 0.9345703125
vt 0.5927734375 0.9345703125
vt 0.5927734375 0.255859375
vt 0.4716796875 0
vt 0.4716796875 0.5556640625
vt 0.2939453125 0.5556640625
vt 0.2939453125 0
vt 0.177734375 0.5517578125
vt 0 0.5517578125
vt 0 0
vt 0.177734375 0
vn 1 0 0
vn -1 0 0
vn 0 1 0
vn 0 -1 0
vn 0 0 1
vn 0 0 -1
usemtl m_fd1630bf-1b18-cb58-a3b3-35bfdc724903
f 2/1/1 1/2/1 3/3/1 4/4/1
f 7/5/2 5/6/2 6/7/2 8/8/2
f 5/9/3 1/10/3 2/11/3 6/12/3
f 4/13/4 3/14/4 7/15/4 8/16/4
f 3/17/5 1/18/5 5/19/5 7/20/5
f 6/21/6 2/22/6 4/23/6 8/24/6