# Made in Blockbench 5.1.1
mtllib wbgun01-2_lotforModel.mtl

o mesh
v 0.03125 0.140625 0.015625
v 0.03125 0.140625 -0.015625
v 0.03125 -0.140625 0.015625
v 0.03125 -0.140625 -0.015625
v -0.03125 0.140625 0.015625
v -0.03125 0.140625 -0.015625
v -0.03125 -0.140625 0.015625
v -0.03125 -0.140625 -0.015625
vt 0.45703125 0.5859375
vt 0.560546875 0.5859375
vt 0.560546875 0.9537760416666666
vt 0.45703125 0.9537760416666666
vt 0.5439453125 0.08333333333333337
vt 0.5439453125 0.4609375
vt 0.4375 0.4609375
vt 0.4375 0.08333333333333337
vt 0.6181640625 0.544921875
vt 0.419921875 0.544921875
vt 0.419921875 0.47981770833333337
vt 0.6181640625 0.47981770833333337
vt 0.6220703125 0
vt 0.6220703125 0.09440104166666663
vt 0.419921875 0.09440104166666663
vt 0.419921875 0
vt 0.6064453125 0.10221354166666663
vt 0.6064453125 0.47721354166666663
vt 0.421875 0.47721354166666663
vt 0.421875 0.10221354166666663
vt 0.4169921875 0.5462239583333333
vt 0.6044921875 0.5462239583333333
vt 0.6044921875 0.9186197916666666
vt 0.4169921875 0.9186197916666666
vn 1 0 0
vn -1 0 0
vn 0 1 0
vn 0 -1 0
vn 0 0 1
vn 0 0 -1
usemtl m_bcc750f4-3a18-8dfc-8ab4-9bfe93e17ae2
f 2/1/1 1/2/1 3/3/1 4/4/1
f 7/5/2 5/6/2 6/7/2 8/8/2
f 5/9/3 1/10/3 2/11/3 6/12/3
f 4/13/4 3/14/4 7/15/4 8/16/4
f 3/17/5 1/18/5 5/19/5 7/20/5
f 6/21/6 2/22/6 4/23/6 8/24/6