# Made in Blockbench 5.1.1
mtllib wbspear_lotforEVERYTHING.mtl

o mesh
v 0.015625 -0.01562499999999998 0.09375
v 0.015625 0.01562500000000002 0.09375
v 0.015625 -0.01562500000000002 -0.09375
v 0.015625 0.01562499999999998 -0.09375
v -0.015625 -0.01562499999999998 0.09375
v -0.015625 0.01562500000000002 0.09375
v -0.015625 -0.01562500000000002 -0.09375
v -0.015625 0.01562499999999998 -0.09375
vt 0.4345703125 0.17447916666666663
vt 0.580078125 0.17447916666666663
vt 0.580078125 0.45768229166666663
vt 0.4345703125 0.45768229166666663
vt 0.580078125 0.58203125
vt 0.580078125 0.8483072916666666
vt 0.4345703125 0.8483072916666666
vt 0.4345703125 0.58203125
vt 0.48046875 0.1171875
vt 0.3056640625 0.1171875
vt 0.3056640625 0
vt 0.48046875 0
vt 0.6064453125 0.4609375
vt 0.6064453125 0.5813802083333333
vt 0.4169921875 0.5813802083333333
vt 0.4169921875 0.4609375
vt 0.41357421875000006 0.5712890625
vt 0.01708984375 0.5712890625
vt 0.01708984375 0.47428385416666663
vt 0.41357421875000006 0.47428385416666663
vt 0.9833984375 0.4697265625
vt 0.9833984375 0.5641276041666667
vt 0.607421875 0.5641276041666667
vt 0.607421875 0.4697265625
vn 1 0 0
vn -1 0 0
vn 0 2.220446049250313e-16 1
vn 0 -2.220446049250313e-16 -1
vn 0 -1 2.220446049250313e-16
vn 0 1 -2.220446049250313e-16
usemtl m_2e015c62-7ecb-d74e-b63a-14da02a8ca52
f 2/1/1 1/2/1 3/3/1 4/4/1
f 7/5/2 5/6/2 6/7/2 8/8/2
f 5/9/3 1/10/3 2/11/3 6/12/3
f 4/13/4 3/14/4 7/15/4 8/16/4
f 3/17/5 1/18/5 5/19/5 7/20/5
f 6/21/6 2/22/6 4/23/6 8/24/6