# Made in Blockbench 5.1.0
mtllib wbrot01.mtl

o mesh
v -0.03125 0.09375 -0.015624999999999997
v -0.031249999999999997 0.09375 0.015625000000000003
v -0.03125 -0.09375 -0.015624999999999997
v -0.031249999999999997 -0.09375 0.015625000000000003
v 0.031249999999999997 0.09375 -0.015625000000000003
v 0.03125 0.09375 0.015624999999999997
v 0.031249999999999997 -0.09375 -0.015625000000000003
v 0.03125 -0.09375 0.015624999999999997
vt 0.5654296875 0.537109375
vt 0.6455078125 0.537109375
vt 0.6455078125 0.8059895833333334
vt 0.5654296875 0.8059895833333334
vt 0.4462890625 0.20703125
vt 0.4462890625 0.490234375
vt 0.3740234375 0.490234375
vt 0.3740234375 0.20703125
vt 0.4501953125 0.49609375
vt 0.5625 0.49609375
vt 0.5625 0.5455729166666667
vt 0.4501953125 0.5455729166666667
vt 0.3017578125 0.13411458333333337
vt 0.3017578125 0.197265625
vt 0.1630859375 0.197265625
vt 0.1630859375 0.13411458333333337
vt 0.552734375 0.26236979166666663
vt 0.552734375 0.49609375
vt 0.455078125 0.49609375
vt 0.455078125 0.26236979166666663
vt 0.4482421875 0.5475260416666667
vt 0.5556640625 0.5475260416666667
vt 0.5556640625 0.77734375
vt 0.4482421875 0.77734375
vn -1 0 1.2246467991473532e-16
vn 1 0 -1.2246467991473532e-16
vn 0 1 0
vn 0 -1 0
vn -1.2246467991473532e-16 0 -1
vn 1.2246467991473532e-16 0 1
usemtl m_40d9da5f-6540-b62d-4cba-558be49a3211
f 2/1/1 1/2/1 3/3/1 4/4/1
f 7/5/2 5/6/2 6/7/2 8/8/2
f 5/9/3 1/10/3 2/11/3 6/12/3
f 4/13/4 3/14/4 7/15/4 8/16/4
f 3/17/5 1/18/5 5/19/5 7/20/5
f 6/21/6 2/22/6 4/23/6 8/24/6