# Made in Blockbench 5.1.0
mtllib wbrob02.mtl

o mesh
v -0.03125 0.09375 -0.015624999999999997
v -0.031249999999999997 0.09375 0.015625000000000003
v -0.03125 -0.09375 -0.015624999999999997
v -0.031249999999999997 -0.09375 0.015625000000000003
v 0.031249999999999997 0.09375 -0.015625000000000003
v 0.03125 0.09375 0.015624999999999997
v 0.031249999999999997 -0.09375 -0.015625000000000003
v 0.03125 -0.09375 0.015624999999999997
vt 0 0.453125
vt 0.103515625 0.453125
vt 0.103515625 0.8209635416666666
vt 0 0.8209635416666666
vt 0.40625 0.44661458333333337
vt 0.40625 0.82421875
vt 0.2998046875 0.82421875
vt 0.2998046875 0.44661458333333337
vt 0.8857421875 0.8658854166666666
vt 0.689453125 0.8658854166666666
vt 0.689453125 0.65625
vt 0.8857421875 0.65625
vt 0.9638671875 0.29817708333333337
vt 0.9638671875 0.5221354166666667
vt 0.7587890625 0.5221354166666667
vt 0.7587890625 0.29817708333333337
vt 0.275390625 0.08138020833333337
vt 0.275390625 0.45182291666666663
vt 0.09765625 0.45182291666666663
vt 0.09765625 0.08138020833333337
vt 0.2880859375 0.8248697916666666
vt 0.1103515625 0.8248697916666666
vt 0.1103515625 0.45703125
vt 0.2880859375 0.45703125
vn -1 0 1.2246467991473532e-16
vn 1 0 -1.2246467991473532e-16
vn 0 1 0
vn 0 -1 0
vn -1.2246467991473532e-16 0 -1
vn 1.2246467991473532e-16 0 1
usemtl m_79093cb2-47f2-843e-479f-eca361019db4
f 2/1/1 1/2/1 3/3/1 4/4/1
f 7/5/2 5/6/2 6/7/2 8/8/2
f 5/9/3 1/10/3 2/11/3 6/12/3
f 4/13/4 3/14/4 7/15/4 8/16/4
f 3/17/5 1/18/5 5/19/5 7/20/5
f 6/21/6 2/22/6 4/23/6 8/24/6