# Made in Blockbench 5.1.0
mtllib wbrot01_block.mtl

o mesh
v -0.03125 0.09375 -0.015624999999999997
v -0.031249999999999997 0.09375 0.015625000000000003
v -0.03125 -0.09375 -0.015624999999999997
v -0.031249999999999997 -0.09375 0.015625000000000003
v 0.031249999999999997 0.09375 -0.015625000000000003
v 0.03125 0.09375 0.015624999999999997
v 0.031249999999999997 -0.09375 -0.015625000000000003
v 0.03125 -0.09375 0.015624999999999997
vt 0.2802734375 0.5930989583333333
vt 0.3271484375 0.5930989583333333
vt 0.3271484375 0.9010416666666666
vt 0.2802734375 0.9010416666666666
vt 0.24609375 0.24153645833333337
vt 0.24609375 0.611328125
vt 0.166015625 0.611328125
vt 0.166015625 0.24153645833333337
vt 0.15234375 0.5305989583333333
vt 0.2646484375 0.5305989583333333
vt 0.2646484375 0.580078125
vt 0.15234375 0.580078125
vt 0.419921875 0.009765625
vt 0.419921875 0.060546875
vt 0.2880859375 0.060546875
vt 0.2880859375 0.009765625
vt 0.2646484375 0.29361979166666663
vt 0.2646484375 0.52734375
vt 0.1669921875 0.52734375
vt 0.1669921875 0.29361979166666663
vt 0.18359375 0.5852864583333333
vt 0.2724609375 0.5852864583333333
vt 0.2724609375 0.9283854166666666
vt 0.18359375 0.9283854166666666
vn -1 0 1.2246467991473532e-16
vn 1 0 -1.2246467991473532e-16
vn 0 1 0
vn 0 -1 0
vn -1.2246467991473532e-16 0 -1
vn 1.2246467991473532e-16 0 1
usemtl m_40d9da5f-6540-b62d-4cba-558be49a3211
f 2/1/1 1/2/1 3/3/1 4/4/1
f 7/5/2 5/6/2 6/7/2 8/8/2
f 5/9/3 1/10/3 2/11/3 6/12/3
f 4/13/4 3/14/4 7/15/4 8/16/4
f 3/17/5 1/18/5 5/19/5 7/20/5
f 6/21/6 2/22/6 4/23/6 8/24/6