# Made in Blockbench 5.0.7
mtllib wbzb002.mtl

o mesh
v -0.03125 0.21875 -0.015624999999999997
v -0.031249999999999997 0.21875 0.015625000000000003
v -0.03125 0.03125 -0.015624999999999997
v -0.031249999999999997 0.03125 0.015625000000000003
v 0.031249999999999997 0.21875 -0.015625000000000003
v 0.03125 0.21875 0.015624999999999997
v 0.031249999999999997 0.03125 -0.015625000000000003
v 0.03125 0.03125 0.015624999999999997
vt 0.2890625 0.701171875
vt 0.392578125 0.701171875
vt 0.392578125 0.33333333333333337
vt 0.2890625 0.33333333333333337
vt 0 0.33333333333333337
vt 0 0.7109375
vt 0.1064453125 0.7109375
vt 0.1064453125 0.33333333333333337
vt 0.8017578125 0.33528645833333337
vt 1 0.33528645833333337
vt 1 0.42513020833333337
vt 0.8017578125 0.42513020833333337
vt 0.611328125 0.5475260416666667
vt 0.611328125 1
vt 0.40234375 1
vt 0.40234375 0.5475260416666667
vt 0.2841796875 0.33333333333333337
vt 0.2841796875 0.7037760416666667
vt 0.1064453125 0.7037760416666667
vt 0.1064453125 0.33333333333333337
vt 0.8134765625 0.42513020833333337
vt 0.9912109375 0.42513020833333337
vt 0.9912109375 0.79296875
vt 0.8134765625 0.79296875
vn -1 0 1.2246467991473532e-16
vn 1 0 -1.2246467991473532e-16
vn 0 1 0
vn 0 -1 0
vn -1.2246467991473532e-16 0 -1
vn 1.2246467991473532e-16 0 1
usemtl m_42e6c829-bd3a-fbc8-e9c7-c2f9cc4317f9
f 2/1/1 1/2/1 3/3/1 4/4/1
f 7/5/2 5/6/2 6/7/2 8/8/2
f 5/9/3 1/10/3 2/11/3 6/12/3
f 4/13/4 3/14/4 7/15/4 8/16/4
f 3/17/5 1/18/5 5/19/5 7/20/5
f 6/21/6 2/22/6 4/23/6 8/24/6
o mesh
v -0.02812499999999999 0.034375 0.0125
v -0.02812499999999999 0.034375 -0.0125
v -0.02812500000000001 0.215625 0.0125
v -0.02812500000000001 0.215625 -0.0125
v 0.02812500000000001 0.034375 0.0125
v 0.02812500000000001 0.034375 -0.0125
v 0.02812499999999999 0.215625 0.0125
v 0.02812499999999999 0.215625 -0.0125
vt 0.703125 0.578125
vt 0.56640625 0.578125
vt 0.56640625 -0.05078125
vt 0.703125 -0.05078125
vt 0.36328125 -0.0703125
vt 0.36328125 0.5703125
vt 0.2109375 0.5703125
vt 0.2109375 -0.0703125
vt 0.37109375 0.58203125
vt 0.55078125 0.58203125
vt 0.55078125 0.69140625
vt 0.37109375 0.69140625
vt 0.67578125 0.7109375
vt 0.67578125 0.84375
vt 0.21484375 0.84375
vt 0.21484375 0.7109375
vt 0.5703125 0
vt 0.5703125 0.57421875
vt 0.36328125 0.57421875
vt 0.36328125 0
vt 0.1953125 0.578125
vt 0 0.578125
vt 0 0
vt 0.1953125 0
vn -1 -1.2246467991473532e-16 0
vn 1 1.2246467991473532e-16 0
vn 1.2246467991473532e-16 -1 0
vn -1.2246467991473532e-16 1 0
vn 0 0 1
vn 0 0 -1
usemtl m_41ecd6cf-e598-c5cd-ecee-0fbbd0978313
f 10/25/7 9/26/7 11/27/7 12/28/7
f 15/29/8 13/30/8 14/31/8 16/32/8
f 13/33/9 9/34/9 10/35/9 14/36/9
f 12/37/10 11/38/10 15/39/10 16/40/10
f 11/41/11 9/42/11 13/43/11 15/44/11
f 14/45/12 10/46/12 12/47/12 16/48/12